<svg width="40" height="40" viewBox="0 0 40 40" fill="none" xmlns="http://www.w3.org/2000/svg">
<path d="M8.88948 9.11108H26.6673V10.8889H8.88948V9.11108ZM8.88948 18H17.8739V19.7778H8.88948V18ZM25.9762 13.5555H8.88948V15.3333H24.1995L25.9762 13.5555ZM14.215 32.3022C14.5139 32.6449 14.8932 32.908 15.3189 33.0678C15.7446 33.2276 16.2034 33.2791 16.6539 33.2178H25.3239C25.5302 33.2178 25.728 33.1358 25.8739 32.9899C26.0198 32.8441 26.1017 32.6463 26.1017 32.44C26.1017 32.2337 26.0198 32.0359 25.8739 31.89C25.728 31.7441 25.5302 31.6622 25.3239 31.6622H16.6539C15.6417 31.6444 15.8217 30.7655 15.9639 30.4933C16.1494 30.1738 16.2938 29.8322 16.3939 29.4766C16.4604 29.1905 16.4291 28.8904 16.305 28.6242C16.1809 28.3579 15.9713 28.1409 15.7095 28.0078C15.2889 27.8183 14.8177 27.7718 14.3682 27.8756C13.9187 27.9793 13.5156 28.2275 13.2206 28.5822C12.8384 28.9766 12.3073 29.58 11.7984 30.1666C12.1128 28.9344 12.5206 27.3533 12.9206 25.8111C13.0352 25.4597 13.0124 25.0779 12.8567 24.7426C12.7011 24.4074 12.4241 24.1436 12.0817 24.0044C11.7025 23.8743 11.288 23.8929 10.922 24.0564C10.556 24.22 10.2656 24.5163 10.1095 24.8855C9.62948 25.8089 5.82948 32.1766 5.79171 32.2411C5.73932 32.3288 5.70473 32.4259 5.68989 32.527C5.67505 32.6281 5.68027 32.7311 5.70524 32.8301C5.7302 32.9292 5.77444 33.0223 5.83541 33.1043C5.89638 33.1862 5.9729 33.2554 6.06059 33.3078C6.2377 33.4135 6.44958 33.4446 6.64962 33.3942C6.84966 33.3438 7.02147 33.216 7.12726 33.0389C7.26948 32.8 10.3028 27.7189 11.2595 26.0222C10.5395 28.8 9.74615 31.8911 9.69948 32.1689C9.64695 32.3731 9.66272 32.5889 9.74438 32.7833C9.82604 32.9777 9.9691 33.1401 10.1517 33.2455C10.3551 33.3464 10.5863 33.3767 10.8088 33.3316C11.0313 33.2866 11.2325 33.1687 11.3806 32.9966C11.5206 32.87 11.7828 32.5689 12.4439 31.8011C13.0599 31.0766 13.6908 30.365 14.3362 29.6666C14.5784 29.4111 14.725 29.5244 14.5828 29.7755C14.3046 30.1271 14.1242 30.5459 14.0598 30.9896C13.9954 31.4332 14.0494 31.8861 14.2162 32.3022H14.215Z" fill="white"/>
<path d="M31.1115 24.1055V35.5555H4.44488V4.44439H31.1115V9.99217L32.5893 8.51439C32.8168 8.29002 33.0662 8.08902 33.3338 7.91439V3.33328C33.3338 3.03859 33.2167 2.75598 33.0083 2.5476C32.8 2.33923 32.5173 2.22217 32.2227 2.22217H3.33377C3.03908 2.22217 2.75647 2.33923 2.54809 2.5476C2.33972 2.75598 2.22266 3.03859 2.22266 3.33328V36.6666C2.22266 36.9613 2.33972 37.2439 2.54809 37.4523C2.75647 37.6607 3.03908 37.7777 3.33377 37.7777H32.2227C32.5173 37.7777 32.8 37.6607 33.0083 37.4523C33.2167 37.2439 33.3338 36.9613 33.3338 36.6666V23.8077C32.6523 24.1689 31.8641 24.2745 31.1115 24.1055Z" fill="white"/>
<path d="M37.9198 13.1788L37.3387 12.5977C37.6357 12.2052 37.7861 11.7212 37.7638 11.2295C37.7414 10.7378 37.5478 10.2694 37.2165 9.90545C36.7864 9.52638 36.224 9.3326 35.6517 9.36631C35.0794 9.40003 34.5436 9.6585 34.161 10.0855L20.2443 23.9999L19.3143 27.491C19.2996 27.5367 19.2978 27.5856 19.3091 27.6322C19.3205 27.6788 19.3445 27.7214 19.3785 27.7552C19.4126 27.789 19.4553 27.8128 19.502 27.8238C19.5488 27.8348 19.5976 27.8327 19.6432 27.8177L23.1221 26.8766L36.1132 13.8855L36.6621 14.4355C36.7004 14.4737 36.7308 14.5192 36.7516 14.5692C36.7723 14.6193 36.783 14.6729 36.783 14.7271C36.783 14.7813 36.7723 14.8349 36.7516 14.885C36.7308 14.935 36.7004 14.9805 36.6621 15.0188L31.1987 20.4821C31.0321 20.6489 30.9385 20.8751 30.9386 21.1108C30.9387 21.3466 31.0325 21.5727 31.1993 21.7393C31.3661 21.906 31.5922 21.9995 31.828 21.9994C32.0638 21.9993 32.2899 21.9056 32.4565 21.7388L37.9198 16.2755C38.3305 15.8646 38.5611 15.3075 38.5611 14.7266C38.5611 14.1457 38.3305 13.5885 37.9198 13.1777V13.1788Z" fill="white"/>
</svg>
